<svg xmlns="http://www.w3.org/2000/svg" viewBox="0 0 389.22 379.73"><g id="Layer_2" data-name="Layer 2"><g id="Layer_1-2" data-name="Layer 1"><path d="M166.05,379.73a13.8,13.8,0,0,1-7.06-2.14C107.69,347.84,56.23,318.2,6.46,289.53a21.93,21.93,0,0,1-5.74-4.89L0,283.8V96.07l.65-.82a22.87,22.87,0,0,1,6.8-5.49C52.67,63.69,106.07,32.89,159.3,2A13.24,13.24,0,0,1,166,0a13.08,13.08,0,0,1,6.64,2C226.31,33.06,276.2,61.86,325.21,90c4.81,2.77,6.94,6.55,6.92,12.27-.07,17.11-.07,34.51-.08,51.34q0,21.66-.05,43.3c0,1.47.09,1.62,1.44,2.23,27.72,12.65,45.33,32.11,52.34,57.85,9.1,33.41.12,63.12-26.67,88.3-14.18,13.32-32.32,22.17-55.46,27.06a14.69,14.69,0,0,1-2.95.32h0a8.65,8.65,0,0,1-8.58-5.7c-.85-2.34-2-8.2,6-11.95,13.22-6.26,22.48-13.62,29.14-23.17,9.58-13.74,9.93-30.41,1.15-44.26a26.87,26.87,0,0,1-3.18,2.11l-14.79,8.53c-45,26-91.63,52.85-137.39,79.38A13.7,13.7,0,0,1,166.05,379.73ZM18,139.1c0,44.41,0,90.33-.07,135.49,0,.73,0,.75,1,1.33q40.88,23.57,81.72,47.16l56.43,32.56V336c0-45.9,0-93.38.05-140.06,0-.74,0-.8-1-1.38q-11.21-6.4-22.39-12.89-7.26-4.2-14.53-8.39v14.52q0,19.59,0,39.19c0,8.1-4.35,11-8.4,11a14.23,14.23,0,0,1-7-2.18q-6.4-3.69-12.79-7.41c-9.23-5.37-18.78-10.91-28.24-16.21-5-2.78-7.15-6.54-7.11-12.18.09-11.06.09-22.31.09-33.18,0-9.35,0-19,0-28.53,0-1.47-.22-1.86-1.55-2.61-7.32-4.13-14.7-8.41-21.85-12.54L23.5,118,18,114.82Zm270.94-9.74c-37.05,21.38-75.35,43.49-113.07,65.17-.76.44-.84.48-.84,2.2q0,68.28,0,136.56v22.32l13.62-7.86q62.28-36,124.56-71.93c.72-.41,1.14-.93,1.15-1.42s-.44-1.1-1.2-1.58c-9.48-5.94-20.34-9.33-34.08-10.63,0,1.73,0,3.47,0,5.2,0,3.35,0,6.82,0,10.22,0,1.67.08,6.76-4.79,9.34a8.84,8.84,0,0,1-4.16,1.08,11.26,11.26,0,0,1-6.6-2.55Q246,272.55,228.38,259.64,212.54,248,196.71,236.39c-3.88-2.85-4.77-5.83-4.83-7.82s.62-4.95,4.21-8q16.6-13.92,33.24-27.82,17.07-14.28,34.14-28.57a10.37,10.37,0,0,1,6.61-2.79,8.69,8.69,0,0,1,3.76.88c3.54,1.66,5.31,4.75,5.27,9.17,0,2.07,0,4.14,0,6.21,0,3,0,6.16-.05,9.27a149,149,0,0,1,35.06,5.26c0-21.61,0-43.22,0-65.1v-12.3Zm-18.6,114.51c23,.15,41.52,5.59,56.71,16.64,23.71,17.23,31.67,45.69,21,70.72l.53-.5c24.11-22.94,29.48-57.87,13.05-84.93-10.5-17.31-26.78-29-49.76-35.74a140.11,140.11,0,0,0-39-5.33c-8.59,0-11.64-3.08-11.65-11.58v-3.51l-11.43,9.55c-11.23,9.4-22.83,19.11-34.31,28.63q10.68,7.83,21.35,15.67l12.49,9.16c3.67,2.7,7.36,5.39,11.2,8.2l.68.49c0-2.76,0-5.4,0-8,.1-5.72,3.67-9.42,9.09-9.42ZM73.71,197.69c8.11,4.63,16.15,9.26,24.19,13.9l3.26,1.87,0-18.31q0-16.08,0-32.16v-.17c-8.16-4.66-16.22-9.31-24.52-14.09l-3-1.73v6.17c0,14.91,0,29.43,0,44C73.69,197.4,73.7,197.58,73.71,197.69Zm62.14-35.61c9.66,5.56,19.65,11.32,29.42,17.09a1.6,1.6,0,0,0,.68.28,4.63,4.63,0,0,0,1.33-.6q35.31-20.41,70.63-40.82L305,99.23l-6.09-3.51C289,90,278.65,84,268.56,78.09a2.73,2.73,0,0,0-1.23-.47,3.24,3.24,0,0,0-1.41.55c-16.52,9.61-33.35,19.33-49.62,28.72l-88,50.82ZM82.77,131.42l7.47,4.3c6.05,3.47,12.31,7.06,18.4,10.73a3.75,3.75,0,0,0,1.65.65,3.63,3.63,0,0,0,1.6-.6C140.56,129.86,169.75,113,198,96.73l25-14.42c6.92-4,13.82-8,20.91-12.1l5.43-3.14c-1.32-.77-2.65-1.53-4-2.28-7.53-4.33-14.64-8.41-21.79-12.69a3.53,3.53,0,0,0-1.78-.66,4,4,0,0,0-1.81.66c-24.5,14.24-49.46,28.64-73.59,42.56L123.11,108.1,92.66,125.7ZM33,102.69c10.94,6.3,21.28,12.24,31.75,18.37l0,0c.16-.08.4-.24.59-.35s.46-.3.7-.43q68.88-39.75,137.72-79.53l-6.12-3.53c-9.92-5.72-20.18-11.63-30.21-17.55a2.58,2.58,0,0,0-1.34-.5,3.58,3.58,0,0,0-1.61.62c-15,8.7-30.2,17.5-44.95,26l-14.47,8.36L27,99.26Z"/><path d="M382.89,257.8c-7.32-26.86-25.81-44.55-50.69-55.91-2.44-1.11-3.2-2.35-3.2-5,.1-31.54,0-63.09.13-94.64,0-4.49-1.43-7.36-5.42-9.65q-76.35-43.89-152.53-88c-3.7-2.14-6.7-2.09-10.38,0Q84.95,48.6,9,92.36A20,20,0,0,0,3,97.12V282.7a18.88,18.88,0,0,0,5,4.23q76.3,44,152.53,88.06c4,2.3,7.07,2.34,11,.05q76-44.09,152.18-87.92a16.81,16.81,0,0,0,5.12-4.14c11.6,15.5,11.92,34.76.87,50.6-7.7,11.05-18.31,18.49-30.31,24.17-4.22,2-5.66,4.81-4.43,8.23,1.07,3,4,4.32,8.09,3.45,20.19-4.26,38.82-12,54-26.31C381.94,319.74,392,291.26,382.89,257.8ZM225.1,49.53c9.81,5.87,19.76,11.5,30.21,17.53-10.65,6.17-20.74,12-30.84,17.85Q168.91,117,113.39,149.09c-2.38,1.38-4,1.32-6.29-.07C98.15,143.64,89,138.53,80,133.29c-.94-.54-2.1-.83-2.8-2.12q22.22-12.84,44.4-25.67,48.44-28,96.86-56C220.92,48.08,222.67,48.07,225.1,49.53ZM70.71,141.81c11.05,6.36,21.55,12.43,32.09,18.45a2.72,2.72,0,0,1,1.43,2.73q-.06,27.27-.07,54.55c0,.19-.2.38-.45.85Q87.9,209.3,72.13,200.25c-1.31-.75-1.44-1.82-1.44-3.14C70.72,178.94,70.71,160.76,70.71,141.81Zm32.85-90.24Q133.28,34.41,163,17.21c2.13-1.23,3.73-1.44,6-.11,13.38,7.9,26.87,15.62,40.35,23.41-.56,1.32-1.86,1.59-2.87,2.18Q137,82.82,67.54,122.89c-1.32.76-2.42,1.89-4.35.76C49.37,115.56,35.46,107.6,21,99.26Zm56.51,308.57c-1.36.51-2.14-.54-3-1.05Q87.23,318.82,17.42,278.52c-1.63-.94-2.51-1.8-2.51-3.93Q15,193,15,111.49c0-.45,0-.9.08-1.79,3.54,2,6.75,3.84,9.94,5.68,10.24,5.9,20.44,11.86,30.73,17.67a5.19,5.19,0,0,1,3.07,5.23c-.12,20.58,0,41.15-.14,61.72,0,4.56,1.6,7.31,5.58,9.54,13.78,7.72,27.38,15.75,41.06,23.64,6.62,3.82,10.87,1.39,10.88-6.22q0-27.3,0-54.61v-3.61c1.52-.23,2.34.69,3.26,1.22,12.72,7.31,25.41,14.69,38.15,22,1.65.94,2.53,1.86,2.52,4Q160,278,160.07,360.14Zm8.71-178.69c-1.68,1-3,1.51-5,.31-13.17-7.78-26.45-15.37-39.69-23-.4-.23-.77-.52-1.62-1.1l78.36-45.25Q232.62,94,264.41,75.57c2-1.19,3.55-1.32,5.67-.07,13.4,7.89,26.89,15.61,40.36,23.4-.26,1.42-1.54,1.56-2.43,2.07Q238.4,141.22,168.78,181.45Zm145.94,97q-70.43,40.69-140.87,81.35c-.41.23-.84.44-1.81,1v-3.52q0-80.23,0-160.47c0-2.07.15-3.55,2.35-4.81q70.2-40.35,140.28-80.89c.63-.36,1.29-.66,2.45-1.25,0,28.23,0,55.9,0,83.57,0,2.14-.26,2.75-2.68,2.06A145.4,145.4,0,0,0,278.72,190c-2.14-.07-2.72-.72-2.67-2.79.14-5.24,0-10.47.06-15.71,0-2.85-.83-5.15-3.55-6.43s-5-.32-7.16,1.5Q231.73,194.74,198,222.91c-4.33,3.63-4.17,7.65.47,11.06q33.42,24.57,66.87,49.1c2.37,1.75,4.77,2.72,7.57,1.23s3.23-3.86,3.2-6.65c-.07-5.49,0-11,0-16.46,0-1.32-.11-2.28,1.92-2.11,13.07,1.09,25.52,4.16,36.76,11.2C318.25,272.47,318.23,276.4,314.72,278.42Zm35.86,54.48a63.55,63.55,0,0,1-10.27,8.26c-.95-1.18-.16-1.73.2-2.29,16.74-25.89,10.17-57.47-15.24-75.94C308.9,251,290.13,247,270.3,246.87c-3.9,0-6.08,2.44-6.15,6.47-.08,4.43,0,8.87,0,13.92-5.9-4.31-11.3-8.24-16.68-12.19q-17.32-12.7-34.64-25.42c-1.29-.94-2.54-1.47-.5-3.17,17-14.08,33.87-28.27,50.81-42.41.15-.13.44-.09,1-.18,0,3.12,0,6.19,0,9.25,0,6.81,1.7,8.55,8.67,8.59a143.84,143.84,0,0,1,39.85,5.45c21.49,6.3,39.59,17.47,51.48,37.06C381.4,272.71,375.8,308.9,350.58,332.9Z"/></g></g></svg>